<svg width="24" height="24" viewBox="0 0 24 24" fill="none" xmlns="http://www.w3.org/2000/svg">
<path d="M14.75 1.25C17.55 1.25 18.95 1.25014 20.0195 1.79493C20.9603 2.27429 21.7257 3.03966 22.2051 3.98047C22.7499 5.04999 22.75 6.45005 22.75 9.25L22.75 14.75C22.75 17.55 22.7499 18.95 22.2051 20.0195C21.7257 20.9603 20.9603 21.7257 20.0195 22.2051C18.95 22.7499 17.5499 22.75 14.75 22.75L9.25 22.75C6.45004 22.75 5.04998 22.7499 3.98047 22.2051C3.03965 21.7257 2.27429 20.9603 1.79492 20.0195C1.25013 18.95 1.25 17.55 1.25 14.75L1.25 9.25C1.25 6.45005 1.25013 5.04998 1.79492 3.98047C2.27429 3.03966 3.03966 2.27429 3.98047 1.79492C5.04998 1.25013 6.45005 1.25 9.25 1.25L14.75 1.25ZM9.53027 15.4697C9.23738 15.1768 8.76262 15.1768 8.46972 15.4697L7 16.9395L6.53027 16.4697L6.47363 16.418C6.17905 16.1777 5.74433 16.1951 5.46972 16.4697C5.19515 16.7443 5.17766 17.1791 5.41797 17.4736L5.46972 17.5303L6.46972 18.5303L6.52636 18.582C6.82094 18.8223 7.25567 18.8049 7.53027 18.5303L9.53027 16.5303C9.82316 16.2374 9.82316 15.7626 9.53027 15.4697ZM12 16.25C11.5858 16.25 11.25 16.5858 11.25 17C11.25 17.4142 11.5858 17.75 12 17.75L18 17.75C18.4142 17.75 18.75 17.4142 18.75 17C18.75 16.5858 18.4142 16.25 18 16.25L12 16.25ZM9.53027 10.4697C9.23738 10.1768 8.76262 10.1768 8.46972 10.4697L7 11.9395L6.53027 11.4697L6.47363 11.418C6.17905 11.1777 5.74433 11.1951 5.46972 11.4697C5.19515 11.7443 5.17767 12.1791 5.41797 12.4736L5.46972 12.5303L6.46972 13.5303C6.76261 13.8232 7.23738 13.8231 7.53027 13.5303L9.53027 11.5303C9.82316 11.2374 9.82316 10.7626 9.53027 10.4697ZM12 11.25C11.5858 11.25 11.25 11.5858 11.25 12C11.25 12.4142 11.5858 12.75 12 12.75L18 12.75L18.0771 12.7461C18.4551 12.7075 18.75 12.3882 18.75 12C18.75 11.6118 18.4551 11.2925 18.0771 11.2539L18 11.25L12 11.25ZM9.53027 5.46973C9.23738 5.17683 8.76262 5.17683 8.46973 5.46973L7 6.93945L6.53027 6.46973L6.47363 6.41797C6.17905 6.17766 5.74433 6.19512 5.46973 6.46973C5.19515 6.74433 5.17767 7.17906 5.41797 7.47363L5.46973 7.53027L6.46973 8.53027L6.58398 8.62402C6.70628 8.70555 6.85085 8.75 7 8.75C7.1989 8.75 7.38962 8.67091 7.53027 8.53027L9.53027 6.53027C9.82317 6.23738 9.82316 5.76262 9.53027 5.46973ZM12 6.25C11.5858 6.25002 11.25 6.5858 11.25 7C11.25 7.41419 11.5858 7.74999 12 7.75L18 7.75L18.0771 7.7461C18.4551 7.70748 18.75 7.38816 18.75 7C18.75 6.61184 18.4551 6.29253 18.0771 6.25391L18 6.25L12 6.25Z" fill="currentColor"/>
</svg>
