<svg width="24" height="24" viewBox="0 0 24 24" fill="none" xmlns="http://www.w3.org/2000/svg">
<path d="M16 0.25C16.4142 0.25 16.75 0.585786 16.75 1V1.30762C17.9265 1.37957 18.7611 1.5413 19.4736 1.9043C20.6026 2.47954 21.5205 3.39739 22.0957 4.52637C22.7496 5.80977 22.75 7.48965 22.75 10.8496V13.1504C22.75 16.5103 22.7496 18.1902 22.0957 19.4736C21.5205 20.6026 20.6026 21.5205 19.4736 22.0957C18.1902 22.7496 16.5103 22.75 13.1504 22.75H10.8496C7.48965 22.75 5.80977 22.7496 4.52637 22.0957C3.39739 21.5205 2.47954 20.6026 1.9043 19.4736C1.25042 18.1902 1.25 16.5103 1.25 13.1504V10.8496C1.25 7.48965 1.25042 5.80977 1.9043 4.52637C2.47954 3.39739 3.39739 2.47954 4.52637 1.9043C5.23885 1.5413 6.07352 1.37957 7.25 1.30762V1C7.25 0.585786 7.58579 0.25 8 0.25C8.38817 0.25 8.70747 0.544882 8.74609 0.922852L8.75 1V1.25879C9.3688 1.25037 10.0632 1.25 10.8496 1.25H13.1504C13.9368 1.25 14.6312 1.25037 15.25 1.25879V1C15.25 0.585786 15.5858 0.25 16 0.25ZM7.5 15.25C6.80964 15.25 6.25 15.8096 6.25 16.5C6.25 17.1904 6.80964 17.75 7.5 17.75C8.19036 17.75 8.75 17.1904 8.75 16.5C8.75 15.8096 8.19036 15.25 7.5 15.25ZM12 15.25C11.3096 15.25 10.75 15.8096 10.75 16.5C10.75 17.1904 11.3096 17.75 12 17.75C12.6904 17.75 13.25 17.1904 13.25 16.5C13.25 15.8096 12.6904 15.25 12 15.25ZM16.5 15.25C15.8096 15.25 15.25 15.8096 15.25 16.5C15.25 17.1904 15.8096 17.75 16.5 17.75C17.1904 17.75 17.75 17.1904 17.75 16.5C17.75 15.8096 17.1904 15.25 16.5 15.25ZM7.5 11.25C6.80964 11.25 6.25 11.8096 6.25 12.5C6.25 13.1904 6.80964 13.75 7.5 13.75C8.19036 13.75 8.75 13.1904 8.75 12.5C8.75 11.8096 8.19036 11.25 7.5 11.25ZM12 11.25C11.3096 11.25 10.75 11.8096 10.75 12.5C10.75 13.1904 11.3096 13.75 12 13.75C12.6904 13.75 13.25 13.1904 13.25 12.5C13.25 11.8096 12.6904 11.25 12 11.25ZM16.5 11.25C15.8096 11.25 15.25 11.8096 15.25 12.5C15.25 13.1904 15.8096 13.75 16.5 13.75C17.1904 13.75 17.75 13.1904 17.75 12.5C17.75 11.8096 17.1904 11.25 16.5 11.25ZM6.5 7.25C6.08579 7.25 5.75 7.58579 5.75 8C5.75 8.41421 6.08579 8.75 6.5 8.75H17.5C17.9142 8.75 18.25 8.41421 18.25 8C18.25 7.58579 17.9142 7.25 17.5 7.25H6.5Z" fill="currentColor"/>
</svg>
