<svg width="24" height="24" viewBox="0 0 24 24" fill="none" xmlns="http://www.w3.org/2000/svg">
<path d="M12 19.25C12.4142 19.25 12.75 19.5858 12.75 20V22C12.75 22.4142 12.4142 22.75 12 22.75C11.5858 22.75 11.25 22.4142 11.25 22V20C11.25 19.5858 11.5858 19.25 12 19.25ZM5.46973 17.4697C5.76262 17.1768 6.23738 17.1768 6.53027 17.4697C6.82317 17.7626 6.82317 18.2374 6.53027 18.5303L5.03027 20.0303C4.73738 20.3232 4.26262 20.3232 3.96973 20.0303C3.67683 19.7374 3.67683 19.2626 3.96973 18.9697L5.46973 17.4697ZM17.4697 17.4688C17.7444 17.1943 18.1791 17.1775 18.4736 17.418L18.5303 17.4688L20.0303 18.9688L20.082 19.0264C20.3221 19.3209 20.3048 19.7558 20.0303 20.0303C19.7556 20.3047 19.3209 20.3215 19.0264 20.0811L18.9697 20.0303L17.4697 18.5303L17.418 18.4727C17.1779 18.1781 17.1952 17.7433 17.4697 17.4688ZM12 6.25C15.1756 6.25 17.75 8.82436 17.75 12C17.75 15.1756 15.1756 17.75 12 17.75C8.82436 17.75 6.25 15.1756 6.25 12C6.25 8.82436 8.82436 6.25 12 6.25ZM4.07715 11.2539C4.45512 11.2925 4.75 11.6118 4.75 12C4.75 12.3882 4.45512 12.7075 4.07715 12.7461L4 12.75H2C1.58579 12.75 1.25 12.4142 1.25 12C1.25 11.5858 1.58579 11.25 2 11.25H4L4.07715 11.2539ZM22.0771 11.2539C22.4551 11.2925 22.75 11.6118 22.75 12C22.75 12.3882 22.4551 12.7075 22.0771 12.7461L22 12.75H20C19.5858 12.75 19.25 12.4142 19.25 12C19.25 11.5858 19.5858 11.25 20 11.25H22L22.0771 11.2539ZM18.9697 3.96973C19.2626 3.67683 19.7374 3.67683 20.0303 3.96973C20.3232 4.26262 20.3232 4.73738 20.0303 5.03027L18.5303 6.53027C18.2374 6.82317 17.7626 6.82317 17.4697 6.53027C17.1768 6.23738 17.1768 5.76262 17.4697 5.46973L18.9697 3.96973ZM3.96973 3.96875C4.24442 3.69429 4.67913 3.67751 4.97363 3.91797L5.03027 3.96875L6.53027 5.46875L6.58203 5.52637C6.82211 5.82095 6.8048 6.25575 6.53027 6.53027C6.25557 6.80473 5.82087 6.82152 5.52637 6.58105L5.46973 6.53027L3.96973 5.03027L3.91797 4.97266C3.6779 4.67808 3.69521 4.24327 3.96973 3.96875ZM12 1.25C12.4142 1.25 12.75 1.58579 12.75 2V4C12.75 4.41421 12.4142 4.75 12 4.75C11.5858 4.75 11.25 4.41421 11.25 4V2C11.25 1.58579 11.5858 1.25 12 1.25Z" fill="currentColor"/>
</svg>
